<?xml version="1.0" encoding="UTF-8" standalone="no"?>
<!-- Generator: Adobe Illustrator 24.1.1, SVG Export Plug-In . SVG Version: 6.00 Build 0)  -->

<svg
   xmlns:dc="http://purl.org/dc/elements/1.1/"
   xmlns:cc="http://creativecommons.org/ns#"
   xmlns:rdf="http://www.w3.org/1999/02/22-rdf-syntax-ns#"
   xmlns:svg="http://www.w3.org/2000/svg"
   xmlns="http://www.w3.org/2000/svg"
   xmlns:sodipodi="http://sodipodi.sourceforge.net/DTD/sodipodi-0.dtd"
   xmlns:inkscape="http://www.inkscape.org/namespaces/inkscape"
   version="1.1"
   x="0px"
   y="0px"
   viewBox="0 0 131.1839 113.22537"
   xml:space="preserve"
   id="svg43"
   sodipodi:docname="logo.svg"
   inkscape:version="0.92.4 5da689c313, 2019-01-14"
   width="131.1839"
   height="113.22536"><metadata
   id="metadata49"><rdf:RDF><cc:Work
       rdf:about=""><dc:format>image/svg+xml</dc:format><dc:type
         rdf:resource="http://purl.org/dc/dcmitype/StillImage" /><dc:title></dc:title></cc:Work></rdf:RDF></metadata><defs
   id="defs47"><clipPath
     clipPathUnits="userSpaceOnUse"
     id="clipPath860"><rect
       style="opacity:0.5;fill:none;fill-opacity:1;stroke:#000000;stroke-width:2;stroke-linecap:round;stroke-linejoin:round;stroke-miterlimit:4;stroke-dasharray:none;stroke-dashoffset:37.79527664;stroke-opacity:1"
       id="rect862"
       width="150"
       height="150"
       x="345.56219"
       y="464.11273" /></clipPath><clipPath
     clipPathUnits="userSpaceOnUse"
     id="clipPath887"><rect
       style="opacity:0.5;fill:none;fill-opacity:1;stroke:#000000;stroke-width:0.97100699;stroke-linecap:round;stroke-linejoin:round;stroke-miterlimit:4;stroke-dasharray:none;stroke-dashoffset:37.79527664;stroke-opacity:1"
       id="rect889"
       width="131.1839"
       height="113.80382"
       x="355.35504"
       y="486.46155" /></clipPath></defs><sodipodi:namedview
   pagecolor="#ffffff"
   bordercolor="#666666"
   borderopacity="1"
   objecttolerance="10"
   gridtolerance="10"
   guidetolerance="10"
   inkscape:pageopacity="0"
   inkscape:pageshadow="2"
   inkscape:window-width="1920"
   inkscape:window-height="1056"
   id="namedview45"
   showgrid="false"
   inkscape:zoom="0.5606726"
   inkscape:cx="589.65327"
   inkscape:cy="102.5732"
   inkscape:window-x="1920"
   inkscape:window-y="0"
   inkscape:window-maximized="1"
   inkscape:current-layer="svg43"
   fit-margin-top="0"
   fit-margin-left="0"
   fit-margin-right="0"
   fit-margin-bottom="0"><inkscape:grid
     type="xygrid"
     id="grid885"
     originx="-267.90715"
     originy="-500.69308" /></sodipodi:namedview>
<style
   type="text/css"
   id="style2">
	.st0{display:none;}
	.st1{fill:#062832;}
	.st2{fill:#224049;}
	.st3{fill:#3D5860;}
	.st4{fill:#597076;}
	.st5{fill:#75888D;}
	.st6{fill:#909FA4;}
	.st7{fill:#ACB7BB;}
	.st8{fill:#C8CFD1;}
	.st9{fill:#E3E7E8;}
	.st10{fill:#FFFFFF;}
	.st11{fill:#1E828C;}
	.st12{fill:#379099;}
	.st13{fill:#509EA6;}
	.st14{fill:#69ACB2;}
	.st15{fill:#82BABF;}
	.st16{fill:#9BC7CC;}
	.st17{fill:#B4D5D9;}
	.st18{fill:#CDE3E5;}
	.st19{fill:#E6F1F2;}
	.st20{fill:#1D1D1B;}
</style>
<g
   id="Ebene_1"
   class="st0"
   style="display:none"
   transform="translate(-267.90714,-576.63166)">
</g>
<g
   id="Ebene_2"
   transform="translate(-267.90714,-576.63166)">
</g>
<g
   id="Ebene_3"
   clip-path="url(#clipPath887)"
   transform="translate(-355.35504,-487.04)">
	<g
   id="g40">
		<g
   id="g18">
			<path
   d="m 485.75,502.83 c 0,0 0,0 0,0 0,0 0,0 0,0 -0.01,-0.1 -0.02,-0.21 -0.05,-0.31 v 0 c 0,0 0,0 0,0 0,0 0,0 0,0 0,0 0,0 0,-0.01 -0.03,-0.1 -0.06,-0.19 -0.11,-0.28 -0.01,-0.03 -0.03,-0.05 -0.04,-0.08 -0.01,-0.02 -0.02,-0.05 -0.04,-0.07 l -8.15,-14.11 c -0.06,-0.1 -0.12,-0.18 -0.19,-0.27 -0.02,-0.02 -0.04,-0.04 -0.06,-0.06 -0.07,-0.08 -0.15,-0.15 -0.23,-0.21 -0.01,-0.01 -0.02,-0.01 -0.03,-0.02 -0.08,-0.06 -0.16,-0.11 -0.24,-0.15 -0.02,-0.01 -0.05,-0.02 -0.07,-0.04 -0.08,-0.04 -0.16,-0.07 -0.25,-0.09 -0.02,-0.01 -0.03,-0.01 -0.05,-0.02 0,0 0,0 0,0 0,0 0,0 0,0 0,0 0,0 0,0 -0.1,-0.03 -0.2,-0.04 -0.3,-0.05 0,0 0,0 -0.01,0 0,0 0,0 0,0 -0.03,0 -0.06,0 -0.08,-0.01 -0.03,0 -0.06,-0.01 -0.08,-0.01 h -49.22 -1.71 c -0.16,0 -0.33,0.05 -0.45,0.16 -0.16,0.13 -0.3,0.29 -0.41,0.48 l -1.76,3.05 -2.19,3.8 -2.19,-3.8 -1.76,-3.05 c -0.02,-0.03 -0.05,-0.06 -0.07,-0.09 -0.03,-0.05 -0.07,-0.1 -0.11,-0.15 -0.04,-0.05 -0.27,-0.4 -0.46,-0.4 -0.02,0 -0.18,0 -0.39,0 -0.35,0 -0.94,0 -1.75,0 -0.51,0 -1.1,0 -1.76,0 -0.54,0 -1.12,0 -1.75,0 -0.48,0 -0.98,0 -1.51,0 -0.56,0 -1.14,0 -1.75,0 -0.57,0 -1.17,0 -1.78,0 -0.57,0 -1.15,0 -1.75,0 -0.58,0 -1.17,0 -1.78,0 -0.57,0 -1.15,0 -1.75,0 -0.58,0 -1.18,0 -1.78,0 -0.58,0 -1.16,0 -1.75,0 -0.59,0 -1.18,0 -1.78,0 -0.58,0 -1.16,0 -1.75,0 -0.59,0 -1.18,0 -1.78,0 -0.58,0 -1.16,0 -1.75,0 -0.59,0 -1.19,0 -1.78,0 -0.59,0 -1.17,0 -1.75,0 -0.6,0 -1.19,0 -1.78,0 -0.59,0 -1.17,0 -1.75,0 -0.6,0 -1.19,0 -1.78,0 -0.59,0 -1.17,0 -1.75,0 -0.61,0 -1.2,0 -1.78,0 -0.6,0 -1.18,0 -1.75,0 -0.62,0 -1.21,0 -1.78,0 -0.62,0 -1.2,0 -1.75,0 -0.64,0 -1.24,0 -1.78,0 -0.68,0 -1.25,0 -1.75,0 -1.07,0 -1.7,0 -1.7,0 -0.11,0 -0.22,0.01 -0.33,0.03 -0.03,0.01 -0.06,0.01 -0.08,0.02 -0.1,0.02 -0.2,0.05 -0.3,0.09 -0.01,0 -0.02,0.01 -0.03,0.02 -0.09,0.04 -0.17,0.08 -0.25,0.14 -0.02,0.01 -0.05,0.03 -0.07,0.05 -0.09,0.06 -0.17,0.13 -0.24,0.2 0,0 0,0 0,0.01 -0.07,0.07 -0.14,0.15 -0.19,0.24 -0.02,0.02 -0.03,0.05 -0.05,0.07 -0.01,0.02 -0.03,0.04 -0.05,0.07 l -8.15,14.11 c -0.06,0.1 -0.1,0.2 -0.14,0.3 -0.01,0.03 -0.02,0.05 -0.03,0.08 -0.03,0.1 -0.06,0.2 -0.07,0.3 0,0.01 0,0.03 0,0.04 -0.01,0.09 -0.01,0.19 -0.01,0.28 0,0.03 0,0.06 0.01,0.08 0.01,0.1 0.02,0.21 0.05,0.31 0,0 0,0.01 0,0.01 0.03,0.1 0.06,0.19 0.11,0.28 0.01,0.03 0.03,0.05 0.04,0.08 0.01,0.02 0.02,0.05 0.04,0.07 l 0.78,1.36 0.87,1.5 0.88,1.53 0.87,1.5 0.88,1.53 0.87,1.5 0.88,1.53 0.87,1.5 0.88,1.53 0.87,1.5 0.88,1.53 0.87,1.5 0.88,1.53 0.87,1.5 0.88,1.53 0.87,1.5 0.05,0.09 0.83,1.44 0.04,0.07 0.82,1.43 0.06,0.11 0.82,1.42 0.05,0.09 0.81,1.41 0.07,0.13 0.81,1.4 0.06,0.11 0.8,1.39 0.09,0.15 0.8,1.38 0.08,0.13 0.79,1.37 0.1,0.17 0.65,1.13 0.22,0.38 0.65,1.12 0.24,0.42 0.64,1.1 0.24,0.41 0.63,1.09 0.26,0.45 0.87,1.51 0.89,1.54 0.87,1.51 0.89,1.54 0.87,1.51 0.89,1.54 0.56,0.97 v 0 c 0.08,0.14 0.19,0.33 0.31,0.55 0.15,0.27 0.33,0.58 0.56,0.97 0.1,0.18 0.21,0.37 0.33,0.57 0.17,0.3 0.35,0.61 0.55,0.95 0.1,0.17 0.22,0.38 0.32,0.56 0.18,0.31 0.35,0.61 0.55,0.95 0.06,0.11 0.14,0.24 0.2,0.35 0.18,0.31 0.36,0.62 0.55,0.95 0.1,0.18 0.22,0.37 0.32,0.56 0.18,0.31 0.36,0.62 0.55,0.95 0.11,0.18 0.22,0.38 0.33,0.57 0.18,0.32 0.37,0.63 0.56,0.97 0.1,0.18 0.21,0.36 0.32,0.55 0.18,0.32 0.37,0.64 0.56,0.97 0.29,0.5 0.59,1.01 0.89,1.54 0.29,0.5 0.58,1 0.87,1.51 0.29,0.51 0.59,1.02 0.89,1.54 0.29,0.5 0.58,1 0.87,1.51 0.29,0.51 0.59,1.02 0.89,1.54 0.29,0.5 0.58,1.01 0.87,1.51 0.3,0.51 0.59,1.02 0.89,1.54 0.29,0.5 0.58,1.01 0.87,1.51 0.3,0.52 0.59,1.03 0.89,1.54 0.29,0.51 0.58,1.01 0.87,1.51 0.3,0.52 0.6,1.03 0.89,1.54 0.29,0.51 0.59,1.01 0.87,1.51 0.3,0.52 0.6,1.03 0.89,1.54 0.3,0.51 0.59,1.02 0.87,1.51 0.3,0.53 0.6,1.04 0.89,1.54 0.3,0.52 0.59,1.02 0.87,1.51 0.31,0.53 0.6,1.05 0.89,1.54 0.31,0.53 0.6,1.04 0.87,1.51 0.32,0.55 0.62,1.07 0.89,1.54 0.34,0.59 0.63,1.09 0.87,1.51 0.54,0.93 0.85,1.47 0.85,1.47 0.01,0.01 0.02,0.02 0.02,0.03 0.04,0.06 0.07,0.12 0.12,0.17 0.02,0.02 0.03,0.04 0.05,0.05 0,0 0,0.01 0.01,0.01 0.02,0.02 0.04,0.04 0.06,0.06 0,0 0.01,0.01 0.01,0.01 0.01,0.02 0.03,0.03 0.04,0.05 0.04,0.04 0.09,0.08 0.14,0.12 0.01,0.01 0.01,0.01 0.02,0.02 0.01,0.01 0.01,0.01 0.02,0.02 0.01,0.01 0.02,0.01 0.03,0.02 0.01,0.01 0.01,0.01 0.02,0.01 0.03,0.02 0.06,0.04 0.09,0.06 0.02,0.01 0.04,0.03 0.06,0.04 0.02,0.01 0.04,0.02 0.06,0.03 0,0 0,0 0.01,0 0.02,0.01 0.05,0.03 0.07,0.04 0,0 0.01,0 0.01,0 0.02,0.01 0.04,0.02 0.06,0.03 0.04,0.02 0.09,0.03 0.13,0.05 0.02,0.01 0.04,0.01 0.06,0.02 0.01,0 0.02,0.01 0.03,0.01 0,0 0,0 0.01,0 0,0 0.01,0 0.01,0 0.05,0.01 0.1,0.02 0.15,0.03 0.03,0 0.05,0.01 0.07,0.01 0.02,0 0.05,0 0.07,0 0,0 0,0 0,0 0.03,0 0.06,0 0.09,0.01 0.01,0 0.02,0 0.03,0 0.02,0 0.04,0 0.06,0 0,0 0,0 0,0 h 16.29 c 0,0 0,0 0,0 v 0 c 0.11,0 0.22,-0.01 0.33,-0.03 0.03,-0.01 0.06,-0.01 0.08,-0.02 0.1,-0.02 0.2,-0.05 0.3,-0.09 0.01,0 0.02,-0.01 0.03,-0.02 0.09,-0.04 0.17,-0.08 0.25,-0.13 0.02,-0.02 0.05,-0.03 0.07,-0.05 0.08,-0.06 0.17,-0.12 0.24,-0.2 0,0 0,0 0.01,-0.01 0.07,-0.07 0.13,-0.15 0.19,-0.23 0.02,-0.02 0.03,-0.05 0.05,-0.07 0.01,-0.02 0.03,-0.04 0.05,-0.07 l 18.83,-32.62 0.87,-1.5 0.88,-1.52 0.87,-1.5 0.75,-1.3 0.87,-1.5 0.88,-1.53 0.87,-1.5 0.88,-1.53 0.87,-1.5 0.88,-1.53 0.87,-1.5 0.88,-1.53 0.87,-1.5 0.88,-1.53 0.87,-1.5 0.88,-1.53 0.87,-1.5 0.88,-1.53 0.87,-1.5 0.48,-0.83 c 0.13,-0.23 0.27,-0.46 0.4,-0.7 0.06,-0.1 0.12,-0.2 0.18,-0.31 0.23,-0.39 0.46,-0.79 0.69,-1.19 0.07,-0.12 0.13,-0.23 0.2,-0.34 0.23,-0.39 0.45,-0.79 0.68,-1.19 0.01,-0.02 0.02,-0.03 0.03,-0.05 l 0.26,-0.44 c 0.19,-0.33 0.39,-0.67 0.58,-1.01 0.07,-0.12 0.14,-0.24 0.21,-0.36 0.22,-0.39 0.45,-0.78 0.67,-1.17 0.07,-0.12 0.13,-0.23 0.2,-0.35 0.22,-0.38 0.44,-0.77 0.67,-1.16 0.07,-0.13 0.15,-0.25 0.22,-0.38 0.29,-0.5 0.58,-1.01 0.87,-1.51 0.3,-0.51 0.59,-1.02 0.89,-1.54 0.29,-0.5 0.58,-1.01 0.87,-1.51 0.3,-0.51 0.59,-1.03 0.89,-1.54 0.29,-0.51 0.58,-1.01 0.87,-1.51 0.3,-0.52 0.6,-1.03 0.89,-1.54 l 7.04,-12.2 v 0 c 0.34,-0.59 0.63,-1.09 0.87,-1.51 0.54,-0.93 0.85,-1.47 0.85,-1.47 0.06,-0.1 0.1,-0.2 0.14,-0.3 0.01,-0.03 0.02,-0.05 0.03,-0.08 0.02,-0.07 0.04,-0.15 0.05,-0.22 0.01,-0.03 0.02,-0.06 0.02,-0.09 v 0 0 c 0,-0.01 0,-0.02 0,-0.03 0.01,-0.09 0.01,-0.19 0.01,-0.28 0.11,-0.02 0.1,-0.05 0.1,-0.08 z m -63.59,-4.62 4.32,-7.48 h 2.88 v 0 h 1.73 1.75 1.73 1.5 1.73 1.76 1.73 1.76 1.73 1.76 1.73 1.76 1.73 1.76 1.73 1.76 1.73 1.76 1.73 1.76 1.74 1.76 1.73 1.76 1.51 l -0.76,1.32 -0.89,1.54 -0.87,1.51 -0.89,1.54 -0.87,1.51 -0.89,1.54 -0.87,1.51 -0.89,1.54 -0.87,1.51 -0.89,1.54 -0.87,1.51 -0.89,1.54 -0.87,1.51 -0.89,1.54 -0.87,1.51 -0.89,1.54 -0.87,1.51 -0.89,1.54 -0.87,1.51 -0.89,1.54 -0.87,1.51 -0.75,1.31 -0.87,1.51 -0.88,1.53 -0.6,1.04 -0.34,0.6 -13.63,-0.07 14.16,-24.53 c 0.01,-0.01 0.01,-0.02 0.01,-0.03 0.07,-0.13 0.13,-0.27 0.17,-0.41 0.04,-0.13 0.05,-0.27 0.06,-0.4 0,-0.02 0.01,-0.03 0.01,-0.05 0.01,-0.33 -0.07,-0.66 -0.24,-0.95 -0.17,-0.29 -0.42,-0.53 -0.7,-0.69 -0.02,-0.01 -0.03,-0.01 -0.05,-0.02 -0.12,-0.06 -0.24,-0.12 -0.37,-0.15 -0.14,-0.04 -0.28,-0.05 -0.43,-0.06 -0.01,0 -0.03,-0.01 -0.04,-0.01 h -10.33 -0.58 -0.88 -14.05 -3.4 z m 6,63.4 -0.75,-1.31 4.99,0.03 -0.55,0.95 -0.2,0.35 z m 2.62,1.52 -0.55,0.95 -0.32,0.56 -0.88,-1.52 z m -4.25,-4.34 -0.89,-1.54 8.5,0.05 -0.55,0.96 -0.33,0.57 z m -1.76,-3.05 -0.89,-1.54 12.02,0.07 -0.88,1.53 z m -1.64,-3.05 0.88,-1.53 13.63,0.07 -0.88,1.53 z m 1.75,-3.03 0.88,-1.53 13.63,0.07 -0.88,1.53 z m 1.75,-3.03 0.88,-1.53 13.63,0.07 -0.88,1.53 z m 1.75,-3.03 0.88,-1.53 13.63,0.07 -0.88,1.53 z m 1.75,-3.03 0.88,-1.53 13.63,0.07 -0.88,1.53 z m 1.75,-3.03 0.88,-1.53 13.63,0.07 -0.88,1.53 z m 1.75,-3.03 0.88,-1.53 13.63,0.07 -0.88,1.53 z m 1.75,-3.03 0.88,-1.53 13.63,0.07 -0.88,1.53 z m -14.2,-26.64 h 0.55 3.62 c 0,0.02 -0.01,0.03 -0.01,0.05 0.01,-0.02 0.01,-0.03 0.02,-0.05 h 13.77 1.75 1.73 2.37 0.87 0.33 0.33 l -0.33,0.57 -0.87,1.51 -0.75,1.31 -0.87,1.51 -0.88,1.53 -0.87,1.51 v 0 l -2.26,3.91 v 0 l 0.81,-1.4 -5.95,-10.44 h -1.73 l 6.75,11.84 h -1.76 l -6.75,-11.84 h -1.73 l 6.75,11.84 h -1.76 l -6.75,-11.84 h -1.73 l 6.75,11.84 h -1.76 l -6.75,-11.84 h -1.73 l 6.75,11.84 h -1.84 l -4.3,-7.46 -2.13,-3.68 -0.41,-0.71 z m -0.4,8.07 2.18,3.77 1.77,3.07 c 0,0 0.3,0.61 0.58,0.61 h 2.03 10.21 l -4.65,8.06 -0.87,1.5 -0.88,1.53 -0.87,1.5 -0.88,1.53 -0.87,1.5 -0.88,1.53 -0.87,1.5 -0.88,1.53 -0.87,1.5 -0.88,1.53 -0.87,1.5 -0.27,0.46 -0.62,1.07 -0.87,1.5 -0.58,1.01 -0.58,-1.01 -0.87,-1.51 -0.89,-1.54 -0.87,-1.51 -0.89,-1.54 -0.87,-1.51 -0.89,-1.54 -0.87,-1.51 -0.89,-1.54 -0.87,-1.51 -0.89,-1.54 -0.87,-1.51 -0.89,-1.54 -0.87,-1.51 -4.58,-7.93 h 9.87 c 0.03,0.02 0.06,0.04 0.1,0.06 -0.03,-0.02 -0.06,-0.04 -0.09,-0.06 0,0 1.65,0 2.02,0 0.25,0 0.55,-0.55 0.59,-0.61 l 1.77,-3.07 z m -6.3,-20.63 3.42,5.93 -1.7,2.95 -0.57,0.99 c -0.01,0.02 -0.02,0.04 -0.02,0.05 -0.03,0.06 -0.06,0.12 -0.08,0.18 -0.02,0.05 -0.04,0.1 -0.06,0.16 -0.02,0.06 -0.03,0.12 -0.04,0.17 -0.01,0.06 -0.02,0.12 -0.03,0.18 -0.01,0.06 0,0.12 0,0.18 0,0.06 0,0.12 0,0.18 0.01,0.06 0.02,0.12 0.03,0.18 0.01,0.06 0.02,0.12 0.04,0.17 0.02,0.05 0.04,0.11 0.06,0.16 0.02,0.06 0.05,0.12 0.08,0.18 0.01,0.02 0.01,0.04 0.02,0.06 l 0.49,0.85 2.53,4.39 -3.42,5.93 -5.95,-10.31 -1.02,-1.77 1.11,-1.92 z m -5.28,-1.55 h 0.2 1.73 l -2.48,4.29 -3.59,6.14 h -1.76 -0.2 z m -3.26,0 h 0.2 1.3 l -6.1,10.43 h -1.31 -0.2 z m -3.32,0 h 1.57 l -6.1,10.43 h -1.57 z m -3.52,0 h 1.78 l -6.1,10.43 H 393 Z m -3.52,0 h 1.78 l -6.1,10.43 h -1.78 z m -3.52,0 h 1.78 l -6.1,10.43 h -1.78 z m -3.52,0 h 1.78 l -6.1,10.43 h -1.78 z m -3.52,0 h 1.78 l -6.1,10.43 h -1.78 z m -3.52,0 h 1.78 l -6.1,10.43 h -1.78 z m -3.53,0 h 1.78 l -6.1,10.43 h -1.78 z m -3.52,0 h 1.78 l -6.1,10.43 h -1.78 z m -3.52,0 h 1.78 l -6.1,10.43 h -1.78 z m -3.52,0 h 1.78 l -6.1,10.43 h -1.78 z m 23.59,65.79 -0.56,-0.97 -0.89,-1.54 -0.87,-1.51 -0.89,-1.54 -0.87,-1.51 -0.89,-1.54 -0.87,-1.51 -0.89,-1.54 -0.87,-1.51 -0.62,-1.08 -0.26,-0.46 -0.6,-1.04 -0.27,-0.47 -0.61,-1.05 -0.28,-0.49 -0.58,-1.01 -0.29,-0.5 -0.46,-0.8 -0.43,-0.74 -0.44,-0.76 -0.43,-0.75 -0.45,-0.78 -0.44,-0.76 -0.43,-0.75 -0.44,-0.77 -0.44,-0.76 -0.45,-0.78 -0.42,-0.73 -0.45,-0.79 -0.43,-0.74 -0.87,-1.5 -0.88,-1.53 -0.87,-1.5 -0.88,-1.53 -0.87,-1.5 -0.88,-1.53 -0.87,-1.5 -0.88,-1.53 -0.87,-1.5 -0.88,-1.53 -0.87,-1.5 -0.88,-1.53 -0.87,-1.5 -0.88,-1.53 -0.76,-1.31 h 1.52 1.78 1.75 1.78 1.75 1.78 1.75 1.78 1.75 1.78 1.75 1.78 1.75 1.78 1.75 1.78 1.75 1.78 1.75 1.78 1.75 1.51 1.75 1.76 1.75 0.37 l 6.84,11.84 h -14.13 -1.75 -1.76 -1.75 -1.51 -1.75 -1.78 -1.75 -1.78 -0.7 c -0.63,0 -1.22,0.33 -1.55,0.87 -0.01,0.02 -0.03,0.03 -0.04,0.05 -0.01,0.02 -0.01,0.04 -0.02,0.06 -0.3,0.56 -0.29,1.23 0.02,1.78 l 0.34,0.58 0.88,1.53 0.87,1.5 0.88,1.53 0.87,1.5 0.75,1.3 0.45,0.78 0.42,0.72 0.46,0.79 0.42,0.72 0.47,0.81 0.4,0.69 0.48,0.82 0.89,1.54 0.87,1.51 0.89,1.54 0.87,1.51 0.89,1.54 0.87,1.51 0.89,1.54 0.87,1.51 0.89,1.54 0.87,1.51 0.89,1.54 0.87,1.51 0.89,1.54 0.87,1.51 0.89,1.54 0.56,0.97 z m 1.85,3.21 -0.65,-1.13 -0.31,-0.54 h 4.96 l 7.11,0.04 0.33,0.57 0.55,0.95 0.1,0.18 z m 1.63,2.82 -0.65,-1.13 -0.1,-0.18 12.08,0.07 0.1,0.18 0.55,0.95 0.1,0.18 z m 1.66,2.88 -0.56,-0.97 -0.23,-0.4 12.08,0.07 0.23,0.4 0.56,0.97 z m 1.76,3.05 -0.89,-1.54 12.08,0.07 0.89,1.54 z m 1.76,3.05 -0.89,-1.54 12.08,0.07 0.89,1.54 z m 1.76,3.05 -0.89,-1.54 12.08,0.07 0.89,1.54 z m 1.76,3.05 -0.89,-1.54 12.08,0.07 0.89,1.54 z m 1.76,3.04 -0.89,-1.54 12.08,0.07 0.89,1.54 z m 1.76,3.05 -0.89,-1.54 12.08,0.07 0.89,1.54 z m 1.76,3.05 -0.89,-1.54 12.08,0.07 0.89,1.54 z m 1.76,3.05 -0.89,-1.54 12.08,0.07 0.89,1.54 z m 1.76,3.05 -0.89,-1.54 12.08,0.07 0.89,1.54 z m 1.77,3.05 -0.89,-1.54 12.08,0.07 0.89,1.54 z m 44.51,-52.16 -0.87,1.5 -0.88,1.53 -0.87,1.5 -0.88,1.53 -0.87,1.5 -0.88,1.53 -0.87,1.5 -0.88,1.53 -0.55,0.96 v 0 l -0.31,0.54 -0.55,0.96 -0.33,0.57 -0.55,0.95 -0.32,0.55 -0.55,0.95 -0.2,0.35 -0.55,0.95 -0.32,0.55 -0.55,0.95 -0.33,0.57 -0.55,0.96 -0.31,0.54 -0.55,0.96 -0.88,1.53 -0.87,1.5 -0.88,1.53 -0.87,1.5 -0.88,1.53 -0.87,1.5 -0.88,1.53 -0.87,1.5 -0.88,1.53 -0.87,1.5 -0.88,1.53 -0.87,1.5 -0.88,1.53 -0.87,1.5 -0.88,1.53 -0.87,1.5 -0.88,1.53 -0.76,1.31 -16.29,-28.22 -0.87,-1.51 -0.88,-1.53 -0.87,-1.51 -0.75,-1.31 -0.87,-1.51 -0.89,-1.54 -0.39,-0.67 6.88,-11.77 -0.87,-1.5 -6.88,11.77 -0.51,-0.88 -0.37,-0.65 6.88,-11.77 -0.87,-1.5 -6.88,11.77 -0.52,-0.9 -0.36,-0.63 6.88,-11.77 -0.87,-1.5 -6.88,11.77 -0.53,-0.92 -0.35,-0.61 6.88,-11.77 -0.87,-1.5 -6.88,11.77 0.46,0.8 -0.11,-0.2 -0.89,-1.54 -0.34,-0.59 6.88,-11.77 -0.87,-1.5 -6.88,11.77 -0.55,-0.96 -0.33,-0.57 6.88,-11.77 -0.87,-1.5 -6.88,11.77 -0.56,-0.98 -0.32,-0.55 6.88,-11.77 -0.87,-1.5 -6.88,11.77 -0.57,-0.99 -0.31,-0.53 6.88,-11.77 -0.87,-1.5 -6.88,11.77 -0.58,-1.01 -0.3,-0.52 6.88,-11.77 -0.06,-0.11 h -1.62 l -6.06,10.37 -0.6,-1.03 -0.29,-0.5 5.17,-8.84 h -1.75 l -4.29,7.34 0.31,0.54 v 0 0 l -0.03,-0.06 -0.84,-1.45 -0.88,-1.52 -0.87,-1.5 -0.75,-1.3 -0.87,-1.5 -0.33,-0.56 h 0.65 1.75 1.51 1.75 1.76 1.75 4.51 l 4.56,7.9 0.87,1.51 0.89,1.54 0.87,1.51 0.89,1.54 0.87,1.51 0.89,1.54 0.87,1.51 0.89,1.54 0.87,1.51 0.89,1.54 0.87,1.51 0.89,1.54 0.87,1.51 0.89,1.54 0.87,1.51 0.89,1.54 0.87,1.51 0.89,1.54 0.56,0.97 v 0 l 0.32,0.55 0.56,0.97 0.33,0.57 0.55,0.95 0.32,0.56 0.55,0.95 0.2,0.35 0.55,0.95 0.32,0.56 0.55,0.95 0.33,0.57 0.56,0.97 0.32,0.55 0.56,0.97 0.89,1.54 0.35,0.61 c 0.08,0.14 0.18,0.27 0.29,0.38 0.07,0.07 0.15,0.12 0.22,0.17 0.05,0.03 0.09,0.08 0.14,0.11 0.26,0.16 0.56,0.24 0.87,0.25 0,0 0,0 0.01,0 0.02,0 0.04,0.01 0.07,0.01 0,0 0,0 0,0 0,0 0,0 0,0 0.5,0 0.97,-0.2 1.31,-0.55 0.01,-0.01 0.01,-0.01 0.01,-0.02 0.1,-0.11 0.2,-0.22 0.27,-0.35 l 1.77,-3.07 0.87,-1.5 0.88,-1.52 0.87,-1.5 0.75,-1.3 0.87,-1.5 0.88,-1.53 0.87,-1.5 0.88,-1.53 0.87,-1.5 0.88,-1.53 0.87,-1.5 0.88,-1.53 0.87,-1.5 0.88,-1.53 0.87,-1.5 0.88,-1.53 0.87,-1.5 0.88,-1.53 0.87,-1.5 0.88,-1.53 0.87,-1.5 0.88,-1.53 0.56,-0.97 0.56,0.98 0.88,1.54 0.86,1.51 0.88,1.54 0.86,1.51 0.88,1.54 0.86,1.51 0.21,0.37 z m 5.25,-9.09 -0.87,1.5 -0.88,1.53 -0.73,1.26 -0.14,0.24 -0.21,0.36 -0.68,1.17 -0.19,0.33 -0.19,-0.33 -0.89,-1.54 -0.87,-1.51 -0.53,-0.91 -0.36,-0.62 -0.86,-1.51 -0.88,-1.54 -0.86,-1.51 -0.56,-0.99 0.31,-0.55 0.57,-0.98 0.3,-0.52 0.52,-0.9 -0.52,0.9 -0.2,0.35 0.66,1.16 0.88,1.54 0.86,1.51 0.88,1.54 0.86,1.51 0.88,1.54 0.86,1.51 0.1,0.18 0.11,-0.18 0.77,-1.33 -0.1,-0.17 -0.88,-1.54 -0.86,-1.51 -0.88,-1.54 -0.86,-1.51 -0.88,-1.54 -0.86,-1.51 -0.67,-1.17 0.65,-1.13 0.1,-0.18 1.42,2.49 0.86,1.51 0.88,1.54 0.86,1.51 0.88,1.54 0.86,1.51 0.23,0.4 0.23,-0.39 0.64,-1.12 -0.22,-0.39 -0.88,-1.54 -0.86,-1.51 -0.88,-1.54 -0.86,-1.51 -2.29,-4.01 -0.71,1.23 0.61,-1.05 0.89,-1.54 3.07,5.38 0.86,1.51 0.88,1.54 0.86,1.51 0.32,0.56 z m 1.75,-3.03 -0.31,0.54 -0.31,-0.55 -0.88,-1.54 -0.86,-1.51 -3.93,-6.9 0.89,-1.54 4.82,8.45 0.86,1.51 0.31,0.54 z m 1.75,-3.03 -0.3,0.52 -0.3,-0.53 -5.68,-9.97 0.89,-1.54 5.98,10.5 z m 1.46,-2.53 -5.98,-10.5 0.89,-1.54 5.98,10.5 z m 1.76,-3.05 -5.98,-10.5 0.89,-1.54 5.98,10.5 z m 1.76,-3.05 -5.98,-10.5 0.89,-1.54 5.98,10.5 z m 1.76,-3.05 -5.98,-10.5 0.89,-1.54 5.98,10.5 z m 1.76,-3.05 -5.98,-10.5 0.89,-1.54 5.98,10.5 z m 1.76,-3.05 -5.98,-10.5 0.89,-1.54 5.98,10.5 z m 1.76,-3.05 -5.98,-10.5 0.89,-1.54 5.98,10.5 z m 1.76,-3.05 -5.98,-10.5 0.89,-1.54 0.08,-0.13 6.02,10.43 z"
   id="path6"
   inkscape:connector-curvature="0" />
			<polygon
   points="438.03,504.84 437.4,504.84 436.29,504.84 441.37,513.74 442.24,512.23 "
   id="polygon8" />
			<polygon
   points="440.89,504.84 439.79,504.84 443.13,510.69 444,509.18 441.53,504.84 "
   id="polygon10" />
			<polygon
   points="444.12,504.84 443.03,504.84 444.76,507.87 445.63,506.36 444.76,504.84 "
   id="polygon12" />
			<polygon
   points="389.78,526.18 393.17,520.37 391.43,520.37 388.91,524.68 389.23,525.23 "
   id="polygon14" />
			<polygon
   points="387.61,522.43 388.16,523.38 389.92,520.37 388.17,520.37 387.29,521.88 "
   id="polygon16" />
		</g>
		<g
   id="g38">
			<path
   d="m 153.74,702.91 c -1.36,0 -1.96,-0.6 -2.34,-1.86 l -14.09,-46.93 c -0.38,-1.19 0.08,-1.86 1.43,-1.86 h 7.16 c 1.28,0 1.81,0.67 2.19,1.86 l 7.31,25.33 c 1.13,4.02 1.81,10.8 1.81,10.8 0,0 0.9,-6.78 2.03,-10.73 l 7.31,-25.4 c 0.38,-1.19 0.9,-1.86 2.26,-1.86 h 6.56 c 1.28,0 1.73,0.67 1.36,1.86 l -14.02,46.93 c -0.38,1.27 -1.06,1.86 -2.41,1.86 z"
   id="path20"
   inkscape:connector-curvature="0" />
			<path
   d="m 223.33,700.98 c 0,1.34 -0.45,1.94 -1.81,1.94 h -6.56 c -1.36,0 -1.81,-0.6 -1.81,-1.94 v -46.79 c 0,-1.34 0.45,-1.94 1.81,-1.94 h 6.56 c 1.36,0 1.81,0.6 1.81,1.94 z"
   id="path22"
   inkscape:connector-curvature="0" />
			<path
   d="m 269.8,683.62 v 17.36 c 0,1.34 -0.45,1.94 -1.81,1.94 h -6.56 c -1.36,0 -1.81,-0.6 -1.81,-1.94 v -46.79 c 0,-1.34 0.45,-1.94 1.81,-1.94 h 15.83 c 13.64,0 18.24,5.89 18.24,12.14 v 7.08 c 0,4.4 -2.26,8.57 -8.29,10.73 l 8.14,18.78 c 0.53,1.19 -0.38,1.94 -1.73,1.94 h -6.63 c -1.06,0 -1.36,-0.75 -1.88,-1.94 l -7.39,-17.36 h -0.45 z m 0,-23.02 v 14.68 h 7.46 c 5.05,0 8.14,-1.86 8.14,-5.59 v -3.5 c 0,-3.73 -3.09,-5.59 -8.14,-5.59 z"
   id="path24"
   inkscape:connector-curvature="0" />
			<path
   d="m 365.33,652.25 c 1.28,0 1.88,0.45 1.88,1.79 v 4.69 c 0,1.34 -0.6,1.86 -1.88,1.86 h -10.7 v 40.38 c 0,1.34 -0.45,1.94 -1.81,1.94 h -6.56 c -1.36,0 -1.88,-0.6 -1.88,-1.94 V 660.6 h -10.7 c -1.36,0 -1.88,-0.52 -1.88,-1.86 v -4.69 c 0,-1.34 0.53,-1.79 1.88,-1.79 h 31.65 z"
   id="path26"
   inkscape:connector-curvature="0" />
			<path
   d="m 403.51,663.8 c 0,-6.26 4.67,-12.14 18.31,-12.14 13.64,0 18.31,5.89 18.31,12.14 v 27.57 c 0,6.26 -4.67,12.14 -18.31,12.14 -13.64,0 -18.31,-5.89 -18.31,-12.14 z m 26.46,1.79 c 0,-3.72 -3.09,-5.59 -8.14,-5.59 -5.05,0 -8.06,1.86 -8.06,5.59 v 23.99 c 0,3.72 3.01,5.59 8.06,5.59 5.05,0 8.14,-1.86 8.14,-5.59 z"
   id="path28"
   inkscape:connector-curvature="0" />
			<path
   d="m 522.19,701.05 c 0,1.27 -0.45,1.86 -1.81,1.86 h -6.26 c -1.36,0 -1.81,-0.6 -1.81,-1.86 v -28.31 c -0.08,0.22 -1.43,4.77 -2.19,6.78 l -5.73,13.86 c -0.53,1.19 -1.21,1.86 -2.49,1.86 h -5.35 c -1.28,0 -1.96,-0.75 -2.41,-1.86 l -6.41,-14.97 c -0.75,-1.56 -1.66,-4.99 -1.73,-5.51 v 28.16 c 0,1.27 -0.45,1.86 -1.81,1.86 h -5.95 c -1.36,0 -1.81,-0.6 -1.81,-1.86 v -46.93 c 0,-1.27 0.45,-1.86 1.81,-1.86 h 5.95 c 0.98,0 1.36,0.37 1.66,1.04 l 11.53,26 c 0.9,2.01 1.88,5.21 1.88,5.21 0,0 0.98,-2.91 1.96,-5.14 l 11.15,-26.23 c 0.3,-0.67 0.83,-0.89 1.73,-0.89 h 6.26 c 1.36,0 1.81,0.6 1.81,1.86 v 46.93 z"
   id="path30"
   inkscape:connector-curvature="0" />
			<path
   d="m 568.66,700.98 c 0,1.34 -0.45,1.94 -1.81,1.94 h -6.56 c -1.36,0 -1.81,-0.6 -1.81,-1.94 v -46.79 c 0,-1.34 0.45,-1.94 1.81,-1.94 h 6.56 c 1.36,0 1.81,0.6 1.81,1.94 z"
   id="path32"
   inkscape:connector-curvature="0" />
			<path
   d="m 634.95,652.25 c 1.36,0 1.96,0.45 1.96,1.79 v 4.62 c 0,0.67 -0.23,1.12 -0.45,1.49 l -19.29,34.42 h 19.14 c 1.28,0 1.88,0.45 1.88,1.79 v 4.69 c 0,1.34 -0.6,1.86 -1.88,1.86 h -29.47 c -1.36,0 -1.88,-0.52 -1.88,-1.86 v -4.69 c 0,-0.6 0.15,-0.97 0.3,-1.27 l 19.37,-34.49 h -16.51 c -1.28,0 -1.88,-0.52 -1.88,-1.86 v -4.69 c 0,-1.34 0.6,-1.79 1.88,-1.79 h 26.83 z"
   id="path34"
   inkscape:connector-curvature="0" />
			<path
   d="m 676.29,702.91 c -1.36,0 -1.81,-0.6 -1.81,-1.94 v -46.79 c 0,-1.34 0.45,-1.94 1.81,-1.94 h 25.78 c 1.28,0 1.88,0.45 1.88,1.79 v 4.69 c 0,1.34 -0.6,1.86 -1.88,1.86 h -17.41 v 12.07 h 16.13 c 1.36,0 1.96,0.45 1.96,1.79 v 4.47 c 0,1.27 -0.6,1.79 -1.96,1.79 h -16.13 v 13.86 h 18.16 c 1.36,0 1.88,0.45 1.88,1.79 v 4.69 c 0,1.34 -0.53,1.86 -1.88,1.86 h -26.53 z"
   id="path36"
   inkscape:connector-curvature="0" />
		</g>
	</g>
</g>
</svg>